HIERARCHY
ROOT Hips
{
	OFFSET 0.00000 0.00000 0.00000
	CHANNELS 6 Xposition Yposition Zposition Yrotation Zrotation Xrotation 
	JOINT Lumbar
	{
		OFFSET 0 0 0
		CHANNELS 3 Zrotation Xrotation Yrotation
		JOINT Neck
		{
			OFFSET 0.00 0.2701 0.00
			CHANNELS 3 Zrotation Xrotation Yrotation
			End Site
			{
				OFFSET 0.00 0.1379 0.00
			}
		}
		JOINT RightShoulder
		{
			OFFSET 0.0119 0.2289 0.1181
			CHANNELS 3 Zrotation Xrotation Yrotation
			JOINT RightElbow
			{
				OFFSET 0.00 -0.1475 0.00
				CHANNELS 2 Zrotation Yrotation
				JOINT RightWrist
				{
					OFFSET 0.00 -0.1605 0.00
					CHANNELS 2 Zrotation Xrotation
					End Site
					{
						OFFSET 0.0040 -0.1068 0.0006
					}
				}
			}
		}
		JOINT LeftShoulder
		{
			OFFSET 0.0119 0.2289 -0.1181
			CHANNELS 3 Zrotation Xrotation Yrotation
			JOINT LeftElbow
			{
				OFFSET 0.00 -0.1475 0.00
				CHANNELS 2 Zrotation Yrotation
				JOINT LeftWrist
				{
					OFFSET 0.00 -0.1605 0.00
					CHANNELS 2 Zrotation Xrotation
					End Site
					{
						OFFSET 0.0040 -0.1068 -0.0006
					}
				}
			}
		}
	}
	JOINT RightHip
	{
		OFFSET 0.0316 -0.0424 0.0458
		CHANNELS 3 Zrotation Xrotation Yrotation
		JOINT RightKnee
		{
			OFFSET 0.00 -0.2438 0.00
			CHANNELS 1 Zrotation
			JOINT RightAnkle
			{
				OFFSET 0.00 -0.2449 0.00
				CHANNELS 3 Zrotation Xrotation Yrotation
				End Site
				{
					OFFSET 0.1237 -0.0542 0.0051
				}
			}
		}
	}
	JOINT LeftHip
	{
		OFFSET 0.0316 -0.0424 -0.0458
		CHANNELS 3 Zrotation Xrotation Yrotation
		JOINT LeftKnee
		{
			OFFSET 0.00 -0.2438 0.00
			CHANNELS 1 Zrotation
			JOINT LeftAnkle
			{
				OFFSET 0.00 -0.2449 0.00
				CHANNELS 3 Zrotation Xrotation Yrotation
				End Site
				{
					OFFSET 0.1237 -0.0542 -0.0051
				}
			}
		}
	}
}
MOTION
Frames: 11
Frame Time: 0.02
-0.12416 -0.02221 -0.29966 12.58439 -27.32127 -4.80942 42.94159 1.01486 -1.13725 -5.8375 -0.3505 -2.11994 11.24339 -13.89574 55.63407 113.82734 83.62048 51.85046 -2.37478 -15.6311 2.69709 -55.39045 104.14478 -101.78861 36.00322 0.76693 43.02338 -3.44572 -14.13298 -20.17044 -6.46963 -2.59202 -3.485 57.75645 15.25754 -1.46612 -33.22875 -12.90802 4.25837 4.65971
-0.12505 -0.02266 -0.29787 12.40185 -27.14436 -4.91997 42.88336 1.16655 -0.98057 -5.93586 -0.19256 -2.11994 11.21748 -13.7885 55.63407 113.66943 83.59922 51.98423 -2.42303 -15.60853 2.84882 -55.38959 104.1527 -101.88367 36.07444 0.75904 43.08447 -3.1629 -14.09266 -20.34586 -6.44394 -2.5681 -3.4753 57.6408 15.46251 -1.47807 -33.2116 -12.89936 4.24432 4.65086
-0.12562 -0.02327 -0.29631 12.17344 -26.90152 -5.15552 42.83112 1.39286 -0.82204 -6.06888 0.02111 -2.11994 11.1648 -13.65819 55.63407 113.45454 83.57414 52.16901 -2.48352 -15.55956 3.01638 -55.38855 104.11629 -101.86888 36.04524 0.75736 43.05321 -2.74524 -13.80624 -20.54382 -6.41659 -2.57108 -3.47889 57.59239 15.85869 -1.91355 -33.19856 -12.97891 4.22019 4.64149
-0.12633 -0.02379 -0.29466 11.97042 -26.6912 -5.32881 42.77739 1.57933 -0.66397 -6.18293 0.2066 -2.11994 11.12499 -13.53626 55.63407 113.26676 83.54964 52.32507 -2.5388 -15.52386 3.17749 -55.38761 104.10515 -101.9031 36.06198 0.75254 43.06568 -2.39347 -13.62654 -20.73044 -6.39102 -2.56328 -3.47698 57.5133 16.16673 -2.12353 -33.18641 -13.01498 4.20038 4.63212
-0.12705 -0.02436 -0.29299 11.74707 -26.46865 -5.52542 42.71832 1.79072 -0.50374 -6.31106 0.40531 -2.11994 11.08293 -13.42213 55.63407 113.07325 83.52941 52.50432 -2.59328 -15.48338 3.33666 -55.3866 104.07462 -101.93968 36.07838 0.74732 43.06851 -2.02324 -13.47006 -20.9211 -6.36121 -2.54903 -3.47263 57.43413 16.4822 -2.45987 -33.1654 -13.0652 4.18157 4.62368
-0.12768 -0.02488 -0.2914 11.55586 -26.2567 -5.70304 42.67203 1.96819 -0.34906 -6.41759 0.589 -2.11994 11.03926 -13.28767 55.63407 112.87913 83.4998 52.64742 -2.65185 -15.44607 3.50219 -55.38568 104.07232 -101.94593 36.07175 0.74505 43.06996 -1.66024 -13.21087 -21.10849 -6.33963 -2.55424 -3.47634 57.37154 16.82586 -2.64113 -33.16261 -13.10725 4.15844 4.61326
-0.12816 -0.02519 -0.28991 11.46153 -26.08755 -5.79766 42.65726 2.03104 -0.20975 -6.45976 0.7209 -2.11994 10.99338 -13.0904 55.63409 112.68792 83.44297 52.67854 -2.72139 -15.42739 3.69375 -55.38501 104.16843 -101.89378 36.01963 0.74979 43.09491 -1.33538 -12.66849 -21.28655 -6.34323 -2.61297 -3.502 57.33571 17.21191 -2.25925 -33.21083 -13.10163 4.12457 4.59671
-0.12856 -0.02545 -0.2885 11.40185 -25.93203 -5.86885 42.65555 2.05766 -0.07683 -6.47835 0.83502 -2.11994 10.94739 -12.87562 55.63411 112.49966 83.3773 52.67146 -2.79409 -15.41207 3.88902 -55.38443 104.29257 -101.81522 35.94851 0.75745 43.1212 -1.02468 -12.04042 -21.45967 -6.35482 -2.68939 -3.53484 57.31483 17.61754 -1.71377 -33.27655 -13.08536 4.08694 4.57831
-0.12899 -0.02573 -0.28708 11.32838 -25.7721 -5.95069 42.64933 2.10262 0.05843 -6.50512 0.955 -2.11994 10.90423 -12.67716 55.63413 112.31633 83.31724 52.68168 -2.86351 -15.39301 4.07428 -55.38382 104.39726 -101.7502 35.8905 0.76374 43.14408 -0.7171 -11.49104 -21.63179 -6.36135 -2.75353 -3.56242 57.28873 18.00648 -1.2654 -33.33277 -13.0763 4.05191 4.56128
-0.12943 -0.02602 -0.28557 11.24486 -25.60218 -6.03676 42.6373 2.14231 0.19683 -6.54346 1.08631 -2.11994 10.84871 -12.44325 55.63415 112.10511 83.25037 52.69399 -2.94108 -15.38261 4.29458 -55.38313 104.5284 -101.67557 35.81132 0.77037 43.17529 -0.36527 -10.76946 -21.8185 -6.37369 -2.83608 -3.59869 57.25805 18.43463 -0.73635 -33.39569 -13.06043 4.01287 4.54205
-0.12983 -0.02628 -0.28425 11.19133 -25.45737 -6.10697 42.64039 2.18335 0.32634 -6.5521 1.18908 -2.11994 10.81889 -12.27849 55.63417 111.95273 83.19559 52.69212 -3.00234 -15.35501 4.44338 -55.38263 104.61211 -101.61519 35.77149 0.77697 43.19095 -0.10976 -10.38428 -21.97323 -6.37604 -2.88467 -3.61867 57.23994 18.78371 -0.32998 -33.44877 -13.05493 3.98129 4.5269
